{
  "accessors": [
    {
      "bufferView": 1,
      "componentType": 5126,
      "count": 264,
      "max": [
        66.0,
        -34.0,
        -55.0
      ],
      "min": [
        43.81800079345703,
        -43.25299835205078,
        -60.0
      ],
      "type": "VEC3"
    },
    {
      "bufferView": 1,
      "byteOffset": 3168,
      "componentType": 5126,
      "count": 264,
      "max": [
        0.9992021322250366,
        1.0,
        1.0
      ],
      "min": [
        -0.998586893081665,
        -1.0,
        -1.0
      ],
      "type": "VEC3"
    },
    {
      "bufferView": 0,
      "componentType": 5125,
      "count": 738,
      "type": "SCALAR"
    },
    {
      "bufferView": 1,
      "byteOffset": 6336,
      "componentType": 5126,
      "count": 308,
      "max": [
        -33.0,
        -10.0,
        -11.0
      ],
      "min": [
        -39.0,
        -19.621999740600586,
        -20.0
      ],
      "type": "VEC3"
    },
    {
      "bufferView": 1,
      "byteOffset": 10032,
      "componentType": 5126,
      "count": 308,
      "max": [
        0.9546739459037781,
        0.9608702659606934,
        0.9054897427558899
      ],
      "min": [
        -0.9546399712562561,
        -1.0,
        -0.9055129885673523
      ],
      "type": "VEC3"
    },
    {
      "bufferView": 0,
      "byteOffset": 2952,
      "componentType": 5125,
      "count": 951,
      "type": "SCALAR"
    },
    {
      "bufferView": 1,
      "byteOffset": 13728,
      "componentType": 5126,
      "count": 462,
      "max": [
        -33.25,
        -19.621999740600586,
        -11.375
      ],
      "min": [
        -38.75,
        -23.36240005493164,
        -19.625
      ],
      "type": "VEC3"
    },
    {
      "bufferView": 1,
      "byteOffset": 19272,
      "componentType": 5126,
      "count": 462,
      "max": [
        1.0,
        0.567046046257019,
        0.9999999403953552
      ],
      "min": [
        -1.0,
        -1.0,
        -1.0
      ],
      "type": "VEC3"
    },
    {
      "bufferView": 0,
      "byteOffset": 6756,
      "componentType": 5125,
      "count": 1956,
      "type": "SCALAR"
    },
    {
      "bufferView": 1,
      "byteOffset": 24816,
      "componentType": 5126,
      "count": 16845,
      "max": [
        76.33699798583984,
        -0.0,
        20.0
      ],
      "min": [
        -65.4280014038086,
        -64.68599700927734,
        -57.5
      ],
      "type": "VEC3"
    },
    {
      "bufferView": 1,
      "byteOffset": 226956,
      "componentType": 5126,
      "count": 16845,
      "max": [
        1.0,
        1.0,
        1.0
      ],
      "min": [
        -1.0,
        -1.0,
        -1.0
      ],
      "type": "VEC3"
    },
    {
      "bufferView": 0,
      "byteOffset": 14580,
      "componentType": 5125,
      "count": 83937,
      "type": "SCALAR"
    }
  ],
  "asset": {
    "extras": {
      "author": "lsky (https://sketchfab.com/lsky)",
      "license": "CC-BY-4.0 (http://creativecommons.org/licenses/by/4.0/)",
      "source": "https://sketchfab.com/3d-models/page-5-6191da7236f64508995a502a360d7d65",
      "title": "Page 5"
    },
    "generator": "Sketchfab-11.91.0",
    "version": "2.0"
  },
  "bufferViews": [
    {
      "buffer": 0,
      "byteLength": 350328,
      "name": "floatBufferViews",
      "target": 34963
    },
    {
      "buffer": 0,
      "byteLength": 429096,
      "byteOffset": 350328,
      "byteStride": 12,
      "name": "floatBufferViews",
      "target": 34962
    }
  ],
  "buffers": [
    {
      "byteLength": 779424,
      "uri": "scene.bin"
    }
  ],
  "materials": [
    {
      "doubleSided": true,
      "name": "color_11107152",
      "pbrMetallicRoughness": {
        "baseColorFactor": [
          0.662745,
          0.482353,
          0.313726,
          1.0
        ],
        "metallicFactor": 0.0
      }
    },
    {
      "doubleSided": true,
      "name": "color_14860437",
      "pbrMetallicRoughness": {
        "baseColorFactor": [
          0.886275,
          0.752941,
          0.584314,
          1.0
        ],
        "metallicFactor": 0.0
      }
    },
    {
      "doubleSided": true,
      "name": "color_15708628",
      "pbrMetallicRoughness": {
        "baseColorFactor": [
          0.937255,
          0.694118,
          0.831373,
          1.0
        ],
        "metallicFactor": 0.0
      }
    },
    {
      "doubleSided": true,
      "name": "color_16448250",
      "pbrMetallicRoughness": {
        "baseColorFactor": [
          0.980392,
          0.980392,
          0.980392,
          1.0
        ],
        "metallicFactor": 0.0
      }
    }
  ],
  "meshes": [
    {
      "name": "Object_0",
      "primitives": [
        {
          "attributes": {
            "NORMAL": 1,
            "POSITION": 0
          },
          "indices": 2,
          "material": 0,
          "mode": 4
        }
      ]
    },
    {
      "name": "Object_1",
      "primitives": [
        {
          "attributes": {
            "NORMAL": 4,
            "POSITION": 3
          },
          "indices": 5,
          "material": 1,
          "mode": 4
        }
      ]
    },
    {
      "name": "Object_2",
      "primitives": [
        {
          "attributes": {
            "NORMAL": 7,
            "POSITION": 6
          },
          "indices": 8,
          "material": 2,
          "mode": 4
        }
      ]
    },
    {
      "name": "Object_3",
      "primitives": [
        {
          "attributes": {
            "NORMAL": 10,
            "POSITION": 9
          },
          "indices": 11,
          "material": 3,
          "mode": 4
        }
      ]
    }
  ],
  "nodes": [
    {
      "children": [
        1
      ],
      "matrix": [
        1.0,
        -1.6081226229577292e-16,
        -5.356124287284811e-32,
        0.0,
        8.006836424271825e-33,
        3.828568672208042e-16,
        -1.0,
        0.0,
        1.6081226229577292e-16,
        1.0,
        3.828568672208042e-16,
        0.0,
        3.552713678800501e-15,
        7.105427357601002e-15,
        1.5777218104420236e-30,
        1.0
      ],
      "name": "Sketchfab_model"
    },
    {
      "children": [
        2,
        3,
        4,
        5
      ],
      "name": "tinker.obj.cleaner.materialmerger.gles"
    },
    {
      "mesh": 0,
      "name": "Object_2"
    },
    {
      "mesh": 1,
      "name": "Object_3"
    },
    {
      "mesh": 2,
      "name": "Object_4"
    },
    {
      "mesh": 3,
      "name": "Object_5"
    }
  ],
  "scene": 0,
  "scenes": [
    {
      "name": "Sketchfab_Scene",
      "nodes": [
        0
      ]
    }
  ]
}
